<svg width="295" height="53" viewBox="0 0 295 53" fill="none" xmlns="http://www.w3.org/2000/svg">
<path d="M94 0C79.6371 0 68 11.6371 68 26C68 40.3629 79.6371 52 94 52C108.363 52 120 40.3629 120 26C120 11.6371 108.363 0 94 0ZM99.9863 36.704L90.7395 29.9839C90.4145 29.7427 90.2258 29.3653 90.2258 28.9669V11.3226C90.2258 10.6306 90.7919 10.0645 91.4839 10.0645H96.5161C97.2081 10.0645 97.7742 10.6306 97.7742 11.3226V25.7589L104.431 30.6024C104.998 31.0113 105.113 31.7976 104.704 32.3637L101.748 36.4315C101.339 36.9871 100.552 37.1129 99.9863 36.704Z" fill="#DCDCDC"/>
<path d="M26 52C40.3594 52 52 40.3594 52 26C52 11.6406 40.3594 0 26 0C11.6406 0 0 11.6406 0 26C0 40.3594 11.6406 52 26 52Z" fill="#DCDCDC"/>
<path d="M22.4514 39.5417C22.0024 39.5418 21.5596 39.4372 21.158 39.2364C20.7565 39.0355 20.4072 38.7439 20.1379 38.3847L13.0445 28.9268C12.8137 28.6231 12.6453 28.2769 12.5489 27.9079C12.4525 27.5389 12.43 27.1545 12.4828 26.7768C12.5355 26.3991 12.6624 26.0356 12.8562 25.7071C13.05 25.3786 13.3068 25.0918 13.6119 24.8629C13.917 24.6341 14.2643 24.4679 14.6339 24.3739C15.0035 24.2798 15.3881 24.2598 15.7654 24.315C16.1428 24.3701 16.5055 24.4993 16.8327 24.6952C17.1599 24.8911 17.4452 25.1498 17.672 25.4563L22.3128 31.6435L34.2314 13.7655C34.4415 13.4482 34.7121 13.1754 35.0279 12.9629C35.3436 12.7504 35.6982 12.6022 36.0713 12.527C36.4444 12.4517 36.8286 12.4509 37.202 12.5244C37.5754 12.598 37.9307 12.7446 38.2474 12.9557C38.564 13.1668 38.8359 13.4383 39.0475 13.7547C39.259 14.0711 39.406 14.4262 39.48 14.7995C39.5541 15.1728 39.5537 15.5571 39.4789 15.9303C39.4042 16.3035 39.2565 16.6582 39.0444 16.9742L24.8573 38.2544C24.6007 38.6392 24.2555 38.957 23.8507 39.1809C23.446 39.4049 22.9935 39.5285 22.5311 39.5414C22.5042 39.5419 22.4774 39.5424 22.4506 39.5424L22.4514 39.5417Z" fill="white"/>
<path d="M289.684 3H144.093C141.294 3 139.024 5.2697 139.024 8.0695V14.4505C139.024 17.2503 141.294 19.52 144.093 19.52H289.684C292.484 19.52 294.754 17.2503 294.754 14.4505V8.0695C294.754 5.2697 292.484 3 289.684 3Z" fill="#DCDCDC"/>
<path d="M289.684 36.0399H144.093C141.294 36.0399 139.024 38.3096 139.024 41.1094V47.4904C139.024 50.2902 141.294 52.5599 144.093 52.5599H289.684C292.484 52.5599 294.754 50.2902 294.754 47.4904V41.1094C294.754 38.3096 292.484 36.0399 289.684 36.0399Z" fill="#DCDCDC"/>
</svg>
