<?xml version="1.0" encoding="UTF-8"?>
<svg data-name="Layer 1" viewBox="0 0 650.11 477.61" xmlns="http://www.w3.org/2000/svg">
<path transform="translate(-274.94 -211.19)" d="m447.63 563.93c-95.218 0-172.68-77.465-172.68-172.68s77.465-172.68 172.68-172.68a173.06 173.06 0 0 1 141.16 73.193l-1.6338 1.1543a171.06 171.06 0 0 0-139.53-72.348c-94.114 0-170.68 76.568-170.68 170.68s76.568 170.68 170.68 170.68a169.59 169.59 0 0 0 135.5-66.872l1.5859 1.2168a171.57 171.57 0 0 1-137.08 67.655z" fill="#e6e6e6"/>
<path transform="translate(-274.94 -211.19)" d="m519.02 362.33a9.572 9.572 0 1 1 9.572-9.572 9.572 9.572 0 0 1-9.572 9.572z" fill="#e6e6e6"/>
<path transform="translate(-274.94 -211.19)" d="m522.35 354.76-2.003-2.003 2.003-2.003a0.94424 0.94424 0 1 0-1.3354-1.3354l-2.003 2.003-2.003-2.003a0.94422 0.94422 0 0 0-1.3353 1.3353l2.003 2.003-2.003 2.003a0.94424 0.94424 0 0 0 1.3354 1.3354l2.003-2.003 2.003 2.003a0.94422 0.94422 0 1 0 1.3353-1.3353z" fill="#fff"/>
<circle cx="196.47" cy="19.049" r="19.049" fill="#e6e6e6"/>
<path transform="translate(-274.94 -211.19)" d="m468.81 240.16a2.1183 2.1183 0 0 1-1.695-0.84774l-5.1968-6.9292a2.1189 2.1189 0 1 1 3.3903-2.5425l3.3999 4.5329 8.7322-13.098a2.119 2.119 0 0 1 3.5262 2.3508l-10.394 15.59a2.1198 2.1198 0 0 1-1.7043 0.94293z" fill="#fff"/>
<rect x="168.92" y="53.414" width="55.946" height="11.963" rx="5.0695" fill="#e6e6e6"/>
<rect x="140.5" y="77.341" width="112.77" height="11.963" rx="5.0695" fill="#e6e6e6"/>
<rect x="140.5" y="101.27" width="112.77" height="11.963" rx="5.0695" fill="#e6e6e6"/>
<path transform="translate(-274.94 -211.19)" d="m460.72 567.58a9.572 9.572 0 1 1 9.572-9.572 9.572 9.572 0 0 1-9.572 9.572z" fill="#e6e6e6"/>
<path transform="translate(-274.94 -211.19)" d="m464.06 560.01-2.003-2.003 2.003-2.003a0.94423 0.94423 0 0 0-1.3353-1.3354l-2.003 2.003-2.003-2.003a0.94422 0.94422 0 0 0-1.3353 1.3353l2.003 2.003-2.003 2.003a0.94423 0.94423 0 1 0 1.3353 1.3354l2.003-2.003 2.003 2.003a0.94422 0.94422 0 1 0 1.3353-1.3353z" fill="#fff"/>
<circle cx="138.17" cy="224.3" r="19.049" fill="#e6e6e6"/>
<path transform="translate(-274.94 -211.19)" d="m410.52 445.4a2.1183 2.1183 0 0 1-1.695-0.84774l-5.1968-6.9292a2.1189 2.1189 0 1 1 3.3903-2.5425l3.3999 4.5329 8.7322-13.098a2.119 2.119 0 1 1 3.5262 2.3508l-10.394 15.59a2.1198 2.1198 0 0 1-1.7043 0.94292z" fill="#fff"/>
<rect x="110.62" y="258.66" width="55.946" height="11.963" rx="5.0695" fill="#e6e6e6"/>
<rect x="82.209" y="282.59" width="112.77" height="11.963" rx="5.0695" fill="#e6e6e6"/>
<rect x="82.209" y="306.52" width="112.77" height="11.963" rx="5.0695" fill="#e6e6e6"/>
<path transform="translate(-274.94 -211.19)" d="m658.73 526.74a13.218 13.218 0 1 1 13.218-13.218 13.218 13.218 0 0 1-13.218 13.218z" fill="#e6e6e6"/>
<path transform="translate(-274.94 -211.19)" d="m663.34 516.28-2.7659-2.7659 2.766-2.766a1.3039 1.3039 0 0 0-1.844-1.844l-2.766 2.766-2.766-2.766a1.3039 1.3039 0 0 0-1.844 1.844l2.766 2.766-2.766 2.766a1.3039 1.3039 0 0 0 1.844 1.844l2.766-2.766 2.7659 2.7659a1.3039 1.3039 0 0 0 1.844-1.844z" fill="#fff"/>
<circle cx="326.2" cy="133.14" r="26.304" fill="#6c63ff"/>
<path transform="translate(-274.94 -211.19)" d="m597.55 358.03a2.9252 2.9252 0 0 1-2.3406-1.1706l-7.1763-9.5685a2.926 2.926 0 1 1 4.6816-3.511l4.695 6.2595 12.058-18.087a2.9261 2.9261 0 1 1 4.8693 3.2462l-14.353 21.529a2.9273 2.9273 0 0 1-2.3534 1.3021c-0.02719 5e-4 -0.05434 9.7e-4 -0.08148 9.7e-4z" fill="#fff"/>
<rect x="288.15" y="180.6" width="77.257" height="16.52" rx="5.0695" fill="#3f3d56"/>
<rect x="248.92" y="213.64" width="155.73" height="16.52" rx="5.0695" fill="#3f3d56"/>
<rect x="248.92" y="246.68" width="155.73" height="16.52" rx="5.0695" fill="#3f3d56"/>
<polygon points="450.68 463.64 437.92 463.64 431.85 414.43 450.68 414.43" fill="#ffb6b6"/>
<path transform="translate(-274.94 -211.19)" d="m725.28 670.66-13.62-5.54-0.39-0.16-7.52 5.7a16.013 16.013 0 0 0-16.01 16.01v0.52h41.13v-16.53z" fill="#2f2e41"/>
<polygon points="558.5 452.95 546.31 456.74 525.92 411.55 543.9 405.96" fill="#ffb6b6"/>
<path transform="translate(-274.94 -211.19)" d="m831.88 660.27-14.65-1.2484-0.41994-0.03708-5.4896 7.6749a16.013 16.013 0 0 0-10.537 20.04l0.15431 0.49654 39.277-12.206-4.9056-15.785z" fill="#2f2e41"/>
<path transform="translate(-274.94 -211.19)" d="m782.4 422.78 5.1881 14.756v7.9763l-0.723 8.7713 8.0301 29.253 6.2992 64.508 31.701 95.492-24.307 7-62.06-156.02-19.602 157.81-22.229-0.593s-3.8028-9.1964-2.8028-14.196 1 1 1-5-4.3351-3.3937-1.1676-8.1968 2.7732-9.0079 2.9704-11.906-1.8028-119.9-1.8028-123.9-0.69291-3.1239-0.34645-7.062 4.7414-2.3192 3.5439-9.1286-1.5918-5.6191-1.3946-10.714 2.9531-34.97 2.9531-34.97z" fill="#2f2e41"/>
<path transform="translate(-274.94 -211.19)" d="m699.21 427.58 44.562-42.975 12.351-34.972-18.218-7.922c-9.3578 8.964-19.473 36.884-19.473 36.884l-30.665 39.013c-0.239 0.08184-0.47728 0.16874-0.71265 0.27268a8.7754 8.7754 0 1 0 12.156 9.699z" fill="#ffb8b8"/>
<path transform="translate(-274.94 -211.19)" d="m732.77 345.62 23.109 7.3362 0.08711-0.0145c8.601-1.4408 15.738-15.488 20.21-27.019a16.091 16.091 0 0 0-8.193-20.384 16.127 16.127 0 0 0-16.89 2.131l-11.866 9.6963z" fill="#6c63ff"/>
<path transform="translate(-274.94 -211.19)" d="m786.33 441.74 0.135-0.17939c7.21-9.5624-2.6512-33.242-4.142-36.677l6.704-1.9858-1.1685-12.764-0.56282-5.6918 5.2124-4.95 0.01755-0.12634 3.5847-25.511 4.6904-16.885a37.322 37.322 0 0 0-9.6563-36.431l-9.5884-9.5199-11.488-17.981-19.261-0.49726-6.9261 12.304a28.082 28.082 0 0 0-22.461 28.101l0.65206 32.755-6.911 40.583-0.19388 7.3717-6.7832 7.158 1.2541 7.2366-5.074 2.0211-2.4829 10.283c-0.94826 1.1864-7.2095 9.1008-7.2665 11.307-0.00855 0.33125 0.22768 0.65774 0.74323 1.0265 4.0528 2.8997 26.705 9.1828 36.9 5.4054 10.86-4.0202 53.421 3.5302 53.849 3.607z" fill="#6c63ff"/>
<path transform="translate(-274.94 -211.19)" d="m739.11 337.9-9.8386-19.615c-14.281 0.97549-42.624 17.487-42.624 17.487l-53.626 11.37a9.6882 9.6882 0 1 0 2.6413 16.556l68.216-4.8897z" fill="#ffb8b8"/>
<path transform="translate(-274.94 -211.19)" d="m735.14 341.12 25.695-19.095 4.5261-16.311a17.816 17.816 0 0 0-5.3583-18.026 17.773 17.773 0 0 0-24.254 0.78253c-9.6694 9.6515-20.698 23.116-18.329 32.453l0.024 0.09464z" fill="#6c63ff"/>
<circle cx="486.12" cy="34.035" r="22.849" fill="#ffb8b8"/>
<path transform="translate(-274.94 -211.19)" d="m776.1 269.13c-3.8218-1.7951-8.2855-0.70422-12.505-0.53819s-9.331-1.4245-10.226-5.5508c-0.66191-3.051 1.3276-6.3951 0.074-9.2544-1.3672-3.1181-5.4707-3.5618-8.7615-4.4349a20.197 20.197 0 0 1-14.584-18.906c-0.22863 1.7036 2.6865 2.2632 3.644 0.83567s0.298-3.4034-0.75775-4.7599-2.4808-2.4398-3.2769-3.9632-0.64134-3.7859 0.91341-4.519a12.696 12.696 0 0 0 8.0415 6.6149c-0.70719-2.1482 0.29272-4.5633 1.9022-6.1522a18.412 18.412 0 0 1 5.8109-3.422c5.2669-2.2831 11.417-4.5551 16.517-1.9209a9.8768 9.8768 0 0 1 5.1058 6.9114c9.4348 0.79777 19.123 11.018 18.586 20.471-0.57813 10.177-1 11-9.4716 28.125" fill="#2f2e41"/>
<path transform="translate(-274.94 -211.19)" d="m890.56 687.78h-33.187l-0.14258-0.25879c-0.42432-0.76953-0.834-1.585-1.2168-2.4228-3.4184-7.3184-4.8633-15.688-6.1382-23.073l-0.96-5.5664a3.4369 3.4369 0 0 1 5.4102-3.3623q7.5652 5.5049 15.136 10.999c1.9111 1.3906 4.0938 3 6.1841 4.7392 0.20166-0.97949 0.4126-1.9619 0.62353-2.9307a3.4392 3.4392 0 0 1 6.2808-1.0859l3.8828 6.2383c2.832 4.5557 5.3315 9.0449 4.8223 13.887a0.756 0.756 0 0 1-0.01318 0.17578 10.947 10.947 0 0 1-0.56348 2.3311z" fill="#f0f0f0"/>
<path transform="translate(-274.94 -211.19)" d="m923.87 688.5-315.36 0.30731a1.1907 1.1907 0 0 1 0-2.3814l315.36-0.30731a1.1907 1.1907 0 0 1 0 2.3814z" fill="#cacaca"/>
</svg>
