<svg width="234" height="53" viewBox="0 0 234 53" fill="none" xmlns="http://www.w3.org/2000/svg">
<path d="M26.304 52.608C40.8313 52.608 52.608 40.8313 52.608 26.304C52.608 11.7767 40.8313 0 26.304 0C11.7767 0 0 11.7767 0 26.304C0 40.8313 11.7767 52.608 26.304 52.608Z" fill="#DCDCDC"/>
<path d="M22.7139 40.0041C22.2597 40.0041 21.8117 39.8983 21.4054 39.6951C20.9992 39.4919 20.6458 39.197 20.3733 38.8335L13.197 29.265C12.9635 28.9578 12.7931 28.6075 12.6956 28.2342C12.5981 27.8609 12.5754 27.472 12.6287 27.0899C12.6821 26.7078 12.8105 26.34 13.0065 26.0077C13.2026 25.6754 13.4624 25.3851 13.771 25.1537C14.0797 24.9222 14.4311 24.754 14.805 24.6589C15.1789 24.5637 15.568 24.5435 15.9498 24.5993C16.3315 24.6551 16.6985 24.7858 17.0295 24.984C17.3606 25.1822 17.6491 25.4439 17.8786 25.754L22.5737 32.0135L34.6316 13.9265C34.8442 13.6054 35.118 13.3295 35.4374 13.1145C35.7568 12.8995 36.1156 12.7496 36.493 12.6735C36.8705 12.5973 37.2592 12.5965 37.637 12.6709C38.0148 12.7453 38.3742 12.8936 38.6946 13.1072C39.0149 13.3208 39.29 13.5955 39.504 13.9156C39.718 14.2357 39.8667 14.5948 39.9416 14.9725C40.0165 15.3502 40.0162 15.739 39.9405 16.1165C39.8649 16.4941 39.7155 16.853 39.5009 17.1727L25.1479 38.7017C24.8883 39.091 24.5391 39.4125 24.1296 39.639C23.7201 39.8656 23.2623 39.9907 22.7945 40.0038C22.7673 40.0043 22.7402 40.0048 22.7131 40.0048L22.7139 40.0041Z" fill="white"/>
<path d="M228.684 3H83.0934C80.2936 3 78.0239 5.2697 78.0239 8.0695V14.4505C78.0239 17.2503 80.2936 19.52 83.0934 19.52H228.684C231.484 19.52 233.754 17.2503 233.754 14.4505V8.0695C233.754 5.2697 231.484 3 228.684 3Z" fill="#DCDCDC"/>
<path d="M228.684 36.0399H83.0934C80.2936 36.0399 78.0239 38.3096 78.0239 41.1094V47.4904C78.0239 50.2902 80.2936 52.5599 83.0934 52.5599H228.684C231.484 52.5599 233.754 50.2902 233.754 47.4904V41.1094C233.754 38.3096 231.484 36.0399 228.684 36.0399Z" fill="#DCDCDC"/>
</svg>
