<svg width="332" height="455" viewBox="0 0 332 455" fill="none" xmlns="http://www.w3.org/2000/svg">
<g clip-path="url(#clip0_1360_754)">
<path d="M293.873 454.266H149.328C128.303 454.266 111.201 437.142 111.201 416.092V38.1733C111.201 17.1233 128.303 0 149.328 0H293.873C314.898 0 332 17.1233 332 38.1733V416.092C332 437.142 314.898 454.266 293.873 454.266Z" fill="#DADBDC"/>
<path d="M293.978 443.932H149.223C133.662 443.932 120.998 431.252 120.998 415.673V37.8511C120.998 22.2715 133.662 9.59204 149.223 9.59204H293.978C309.538 9.59204 322.202 22.2715 322.202 37.8511V415.673C322.202 431.252 309.538 443.932 293.978 443.932Z" fill="white"/>
<path d="M242.071 34.7412H201.137C195.733 34.7412 191.34 30.3423 191.34 24.9318C191.34 19.5213 195.733 15.1224 201.137 15.1224H242.071C247.475 15.1224 251.869 19.5213 251.869 24.9318C251.869 30.3423 247.475 34.7412 242.071 34.7412Z" fill="#DADBDC"/>
<path d="M283.844 150.115H164.065C161.693 150.115 159.762 147.658 159.762 144.645C159.762 141.633 161.693 139.175 164.065 139.175H283.844C286.216 139.175 288.147 141.633 288.147 144.645C288.147 147.658 286.216 150.115 283.844 150.115Z" fill="#DADBDC"/>
<path d="M283.844 174.358H164.065C161.693 174.358 159.762 171.9 159.762 168.887C159.762 165.875 161.693 163.417 164.065 163.417H283.844C286.216 163.417 288.147 165.875 288.147 168.887C288.147 171.9 286.216 174.358 283.844 174.358Z" fill="#DADBDC"/>
<path d="M249.496 198.6H164.065C161.693 198.6 159.762 196.142 159.762 193.13C159.762 190.117 161.693 187.659 164.065 187.659H249.496C251.869 187.659 253.8 190.117 253.8 193.13C253.8 196.142 251.869 198.6 249.496 198.6Z" fill="#DADBDC"/>
<path d="M221.6 341.132C249.838 341.132 272.729 318.213 272.729 289.942C272.729 261.671 249.838 238.752 221.6 238.752C193.363 238.752 170.472 261.671 170.472 289.942C170.472 318.213 193.363 341.132 221.6 341.132Z" fill="#279914"/>
<path d="M104.368 444.271H113.918L118.461 407.394H104.368V444.271Z" fill="#FFB6B6"/>
<path d="M104.622 441.146L114.816 436.995L115.108 436.875L120.737 441.146C123.915 441.147 126.962 442.411 129.209 444.661C131.456 446.911 132.719 449.962 132.72 453.144V453.534H101.935V441.146H104.622Z" fill="#2F2E41"/>
<path d="M23.6675 436.26L32.7914 439.1L48.0527 405.236L34.5952 401.047L23.6675 436.26Z" fill="#FFB6B6"/>
<path d="M24.8352 433.36L35.8003 432.425L36.1146 432.397L40.2234 438.148C43.258 439.093 45.7934 441.206 47.2724 444.022C48.7513 446.838 49.0526 450.127 48.1101 453.166L47.9946 453.538L18.5968 444.391L22.2686 432.562L24.8352 433.36Z" fill="#2F2E41"/>
<path d="M61.8694 255.39L57.9863 266.448V272.425L58.5274 278.998L52.5171 300.92L47.8024 349.261L24.0751 420.82L42.2682 426.066L88.7184 309.148L103.39 427.408L120.028 426.963C120.028 426.963 122.874 420.072 122.126 416.325C121.377 412.578 121.377 417.074 121.377 412.578C121.377 408.082 124.622 410.035 122.251 406.436C119.88 402.836 120.175 399.685 120.028 397.513C119.88 395.342 121.377 307.663 121.377 304.665C121.377 301.668 121.896 302.325 121.636 299.373C121.377 296.422 118.088 297.635 118.984 292.533C119.88 287.43 120.175 288.322 120.028 284.504C119.88 280.686 117.817 258.298 117.817 258.298L61.8694 255.39Z" fill="#2F2E41"/>
<path d="M124.135 258.987L90.7814 226.783L81.537 200.576L95.1727 194.639C102.177 201.356 109.748 222.279 109.748 222.279L132.7 251.515C132.878 251.576 133.057 251.641 133.233 251.719C134.267 252.175 135.165 252.891 135.842 253.797C136.519 254.703 136.951 255.768 137.096 256.89C137.242 258.011 137.096 259.152 136.672 260.2C136.249 261.249 135.562 262.171 134.679 262.876C133.796 263.582 132.746 264.047 131.631 264.228C130.515 264.408 129.372 264.298 128.312 263.907C127.252 263.516 126.311 262.857 125.579 261.996C124.847 261.134 124.35 260.098 124.135 258.987Z" fill="#FFB8B8"/>
<path d="M99.0161 197.568L81.7197 203.066L81.6545 203.055C75.2168 201.975 69.875 191.449 66.5279 182.808C65.4263 179.957 65.4468 176.795 66.5851 173.959C67.7235 171.124 69.8948 168.826 72.6601 167.532C74.7063 166.591 76.9746 166.242 79.2085 166.525C81.4425 166.807 83.5531 167.709 85.3018 169.129L94.1832 176.395L99.0161 197.568Z" fill="#6C63FF"/>
<path d="M58.9281 269.599L58.827 269.464C53.4305 262.298 60.8114 244.553 61.9272 241.979L56.9095 240.491L57.784 230.926L58.2053 226.661L54.304 222.951L54.2908 222.857L51.6078 203.739L48.0972 191.086C46.774 186.303 46.746 181.253 48.0162 176.455C49.2863 171.657 51.8088 167.285 55.3246 163.785L62.5013 156.651L71.0997 143.177L85.5161 142.804L90.7001 152.025C95.5209 153.009 99.8439 155.657 102.916 159.505C105.988 163.353 107.614 168.158 107.512 173.083L107.023 197.629L112.196 228.041L112.341 233.565L117.418 238.929L116.48 244.352L120.277 245.866L122.136 253.572C122.846 254.461 127.532 260.392 127.575 262.046C127.581 262.294 127.404 262.538 127.018 262.815C123.985 264.988 107.03 269.696 99.3996 266.865C91.2712 263.853 59.4155 269.511 59.0951 269.568L58.9281 269.599Z" fill="#3871E0"/>
<path d="M94.271 191.783L101.635 177.084C112.324 177.815 133.538 190.188 133.538 190.188L173.675 198.709C174.864 198.251 176.153 198.115 177.411 198.315C178.669 198.514 179.853 199.042 180.842 199.845C181.832 200.648 182.593 201.698 183.049 202.889C183.504 204.08 183.638 205.37 183.438 206.63C183.237 207.889 182.709 209.073 181.905 210.063C181.102 211.053 180.053 211.814 178.863 212.269C177.673 212.723 176.384 212.856 175.126 212.654C173.868 212.451 172.686 211.921 171.698 211.116L120.641 207.451L94.271 191.783Z" fill="#FFB8B8"/>
<path d="M97.2425 194.196L78.0105 179.887L74.6229 167.664C73.9665 165.262 73.9943 162.724 74.703 160.337C75.4117 157.949 76.7731 155.808 78.6334 154.155C81.1701 151.931 84.4557 150.755 87.8257 150.864C91.1957 150.973 94.3986 152.359 96.7869 154.742C104.024 161.974 112.279 172.064 110.506 179.061L110.488 179.132L97.2425 194.196Z" fill="#3871E0"/>
<path d="M77.842 139.457C68.3969 139.457 60.7401 131.791 60.7401 122.335C60.7401 112.878 68.3969 105.212 77.842 105.212C87.2871 105.212 94.9438 112.878 94.9438 122.335C94.9438 131.791 87.2871 139.457 77.842 139.457Z" fill="#FFB8B8"/>
<path d="M66.5851 140.248C69.4456 138.903 72.7865 139.721 75.9447 139.845C79.1029 139.969 82.9287 138.778 83.5986 135.685C84.094 133.399 82.6049 130.893 83.5432 128.75C84.5665 126.414 87.6378 126.081 90.1009 125.427C93.1883 124.534 95.911 122.679 97.8738 120.131C99.8367 117.583 100.938 114.476 101.017 111.259C101.188 112.536 99.0059 112.955 98.2892 111.885C97.5726 110.816 98.0662 109.335 98.8564 108.318C99.6466 107.302 100.713 106.49 101.309 105.349C101.905 104.207 101.789 102.511 100.625 101.962C100.029 103.167 99.1844 104.232 98.1469 105.087C97.1094 105.941 95.9028 106.566 94.6066 106.919C95.1359 105.309 94.3874 103.5 93.1828 102.309C91.9031 101.193 90.4286 100.324 88.8335 99.7445C84.8914 98.0336 80.2882 96.331 76.471 98.305C75.4855 98.8243 74.6299 99.5599 73.9681 100.457C73.3064 101.354 72.8556 102.389 72.6494 103.484C65.5877 104.082 58.3364 111.741 58.7383 118.825C59.171 126.451 59.4868 127.068 65.8275 139.901" fill="#2F2E41"/>
<path d="M-44.0169 454.515L192.021 454.746C192.258 454.746 192.484 454.652 192.652 454.484C192.819 454.317 192.913 454.09 192.913 453.853C192.913 453.617 192.819 453.39 192.652 453.222C192.484 453.055 192.258 452.961 192.021 452.961L-44.0169 452.731C-44.2533 452.731 -44.48 452.825 -44.6471 452.992C-44.8143 453.159 -44.9082 453.386 -44.9082 453.623C-44.9082 453.86 -44.8143 454.087 -44.6471 454.254C-44.48 454.421 -44.2533 454.515 -44.0169 454.515Z" fill="#CACACA"/>
</g>
<path d="M215.873 311.999C215.16 311.999 214.457 311.837 213.819 311.525C213.182 311.214 212.627 310.761 212.199 310.204L200.936 295.531C200.57 295.06 200.302 294.523 200.149 293.95C199.996 293.378 199.96 292.782 200.044 292.196C200.128 291.61 200.329 291.046 200.637 290.536C200.945 290.026 201.353 289.581 201.837 289.226C202.322 288.871 202.873 288.614 203.46 288.468C204.047 288.322 204.657 288.291 205.257 288.376C205.856 288.462 206.432 288.662 206.951 288.966C207.471 289.27 207.924 289.671 208.284 290.147L215.653 299.746L234.578 272.01C234.912 271.518 235.341 271.095 235.843 270.765C236.344 270.435 236.907 270.205 237.5 270.089C238.092 269.972 238.702 269.97 239.295 270.085C239.888 270.199 240.452 270.426 240.955 270.754C241.458 271.081 241.89 271.502 242.225 271.993C242.561 272.484 242.795 273.035 242.912 273.614C243.03 274.193 243.029 274.789 242.911 275.368C242.792 275.947 242.557 276.498 242.221 276.988L219.693 310.002C219.286 310.599 218.738 311.092 218.095 311.439C217.452 311.787 216.734 311.978 216 311.999C215.957 311.999 215.914 312 215.872 312L215.873 311.999Z" fill="white"/>
<defs>
<clipPath id="clip0_1360_754">
<rect width="332" height="455" fill="white"/>
</clipPath>
</defs>
</svg>
