<?xml version="1.0" encoding="UTF-8"?>
<svg fill="none" viewBox="0 0 449 329" xmlns="http://www.w3.org/2000/svg">
<g clip-path="url(#a)">
<path d="m255.41 54.964c12.048 0 21.815-9.7637 21.815-21.808 0-12.044-9.767-21.808-21.815-21.808s-21.815 9.7636-21.815 21.808c0 12.044 9.767 21.808 21.815 21.808z" fill="#8CC63F" stroke="#333" stroke-miterlimit="10" stroke-width="4"/>
<path d="m83.306 328.83 97.512-168.84 97.503 168.84h-195.01z" fill="#333"/>
<path d="m149.96 325.51 146.49-253.66 146.5 253.66h-292.99z" fill="#333" stroke="#333" stroke-miterlimit="10" stroke-width="8"/>
<path d="m234.6 178.98 61.858-107.11 61.858 107.11-38.944-19.182-22.914 19.182-23.796-19.182-38.062 19.182z" fill="#fff" stroke="#333" stroke-linecap="round" stroke-linejoin="round" stroke-width="8"/>
<path d="m342.23 46.956h-42.242v-31.36h42.242l-12.243 16.696 12.243 14.664z" fill="#9c3"/>
<path d="m298.01 15.545h-3.918v60.355h3.918v-60.355z" fill="#333"/>
<path d="m249.88 23.395c1.511-0.2781 3.044-0.4125 4.581-0.4012 2.504 0 4.118 0.4361 5.331 1.4131 0.527 0.3979 0.949 0.9179 1.23 1.515 0.282 0.5972 0.413 1.2538 0.385 1.9132-0.033 0.9646-0.369 1.8946-0.959 2.6584s-1.406 1.323-2.331 1.5984v0.0611c1.125 0.2283 2.137 0.8368 2.867 1.7231 0.729 0.8864 1.131 1.9967 1.138 3.1444 0.012 0.7268-0.128 1.4481-0.41 2.1179-0.283 0.6699-0.702 1.2735-1.23 1.7726-1.362 1.2299-3.552 1.8406-6.728 1.8406-1.301 0.0112-2.601-0.0645-3.892-0.2268v-19.13h0.018zm2.504 7.9468h2.243c2.617 0 4.205-1.3783 4.205-3.2538 0-2.2767-1.745-3.1664-4.258-3.1664-0.743-0.0185-1.485 0.0399-2.216 0.1744v6.2458h0.026zm0 9.2988c0.697 0.0933 1.4 0.1312 2.103 0.1134 2.618 0 4.982-0.9508 4.982-3.7684 0-2.6169-2.277-3.7422-5.008-3.7422h-2.077v7.3972z" fill="#000"/>
<path d="m147.67 0.095901c-2.521-0.095954-5.069-0.12212-7.591-0.078508-0.314 0.026231-0.607 0.16948-0.82 0.40133-0.214 0.23186-0.332 0.53539-0.332 0.85044 0 0.31504 0.118 0.61858 0.332 0.85043 0.213 0.23186 0.506 0.3751 0.82 0.40133 2.469 0 4.982 0 7.452 0.07851 0.17 0.02015 0.343 0.0052 0.507-0.04392 0.165-0.04912 0.317-0.13138 0.449-0.2417 0.131-0.11033 0.238-0.24637 0.315-0.39976 0.077-0.1534 0.121-0.32088 0.131-0.49213s-0.016-0.34264-0.075-0.50361c-0.06-0.16097-0.151-0.30811-0.269-0.43234-0.119-0.12424-0.261-0.22294-0.419-0.29002-0.158-0.067085-0.328-0.10113-0.5-0.10004z" fill="#333"/>
<path d="m17.679 205.57c-1.1169-2.207-2.1902-4.466-3.1937-6.725-0.0594-0.161-0.1511-0.308-0.2695-0.432s-0.2609-0.223-0.4189-0.29-0.328-0.101-0.4995-0.1c-0.1716 2e-3 -0.3411 0.038-0.4981 0.107s-0.2981 0.17-0.4147 0.296-0.2062 0.274-0.2632 0.436c-0.0571 0.162-0.0804 0.333-0.0685 0.504 0.0118 0.172 0.0586 0.338 0.1375 0.491 1.0122 2.294 2.1117 4.597 3.246 6.839 0.0681 0.156 0.1674 0.297 0.2919 0.414s0.2716 0.208 0.4322 0.266c0.1607 0.058 0.3315 0.083 0.5021 0.073 0.1705-0.01 0.3373-0.055 0.49-0.131 0.1527-0.077 0.2882-0.184 0.3981-0.315 0.11-0.13 0.1921-0.282 0.2413-0.446 0.0493-0.163 0.0647-0.335 0.0453-0.505-0.0195-0.17-0.0733-0.333-0.1583-0.482z" fill="#333"/>
<path d="m11.658 191.92c-0.8726-2.312-1.7452-4.676-2.4607-7.022-0.11121-0.306-0.33631-0.556-0.62805-0.699-0.29175-0.142-0.62749-0.167-0.93677-0.067-0.30928 0.099-0.56807 0.314-0.72209 0.6-0.15401 0.286-0.19128 0.62-0.10398 0.933 0.76788 2.399 1.6056 4.798 2.5043 7.153 0.05901 0.154 0.14781 0.295 0.26131 0.415s0.24949 0.216 0.4002 0.283c0.15075 0.067 0.31315 0.104 0.47815 0.109 0.165 4e-3 0.3292-0.024 0.4834-0.083 0.1541-0.059 0.2951-0.148 0.4149-0.261 0.1198-0.114 0.2161-0.25 0.2833-0.4 0.0673-0.151 0.1042-0.313 0.1086-0.478 0.0045-0.165-0.0236-0.329-0.0826-0.483z" fill="#333"/>
<path d="m5.4188 170.54c-0.08994-0.301-0.28959-0.557-0.55953-0.719-0.26994-0.161-0.59055-0.215-0.89852-0.152-0.30797 0.064-0.58091 0.241-0.76493 0.496-0.18401 0.255-0.26573 0.569-0.229 0.881 0.51483 2.469 1.0907 4.955 1.7452 7.38 0.10051 0.303 0.31278 0.557 0.59364 0.709s0.6092 0.192 0.91823 0.111c0.30904-0.081 0.57555-0.277 0.74533-0.548 0.16977-0.27 0.23006-0.595 0.1686-0.909-0.64572-2.381-1.1954-4.824-1.719-7.249z" fill="#333"/>
<path d="m132.47 0.34021c-2.513 0.17446-5.052 0.41871-7.548 0.72401-0.173 0.00778-0.343 0.05123-0.498 0.12761-0.155 0.07639-0.293 0.18407-0.405 0.31628s-0.195 0.28609-0.245 0.452c-0.049 0.1659-0.064 0.34025-0.043 0.51208 0.021 0.17184 0.078 0.33745 0.166 0.48646 0.088 0.149 0.206 0.27818 0.347 0.37941 0.14 0.10124 0.3 0.17235 0.469 0.20888 0.17 0.03652 0.345 0.03767 0.514 0.00337 2.461-0.30531 4.957-0.54083 7.417-0.7153 0.309-0.0513 0.587-0.21566 0.781-0.46098 0.193-0.24533 0.288-0.55399 0.267-0.86572-0.022-0.31174-0.159-0.60415-0.385-0.82014-0.226-0.21599-0.525-0.34005-0.837-0.34796z" fill="#333"/>
<path d="m162.78 1.4655c-2.496-0.36637-5.035-0.66296-7.539-0.87231-0.171-0.028605-0.346-0.021681-0.514 0.020335-0.167 0.042017-0.325 0.11822-0.462 0.22384-0.137 0.10562-0.25 0.23838-0.334 0.38996-0.083 0.15159-0.134 0.31873-0.15 0.49096-0.015 0.17223 5e-3 0.34584 0.059 0.50995 0.055 0.16411 0.143 0.31519 0.258 0.44377 0.116 0.12859 0.257 0.2319 0.415 0.30348 0.157 0.07158 0.328 0.10988 0.501 0.1125 2.46 0.2268 4.956 0.51467 7.408 0.87231 0.331 0.04743 0.667-0.03851 0.935-0.23891 0.267-0.20039 0.444-0.49883 0.492-0.82967 0.047-0.33083-0.039-0.66695-0.239-0.93442-0.201-0.26747-0.499-0.44437-0.83-0.4918z" fill="#333"/>
<path d="m25.139 218.44c-1.3438-2.068-2.6177-4.205-3.8917-6.342-0.1667-0.294-0.4432-0.51-0.7689-0.6-0.3256-0.09-0.6737-0.046-0.9676 0.12-0.2939 0.167-0.5096 0.443-0.5996 0.769-0.09 0.325-0.0469 0.673 0.1197 0.967 1.2565 2.172 2.6178 4.362 3.9616 6.455 0.1816 0.285 0.4689 0.485 0.7987 0.558 0.3297 0.073 0.6749 0.012 0.9595-0.17 0.2847-0.181 0.4855-0.469 0.5583-0.798 0.0728-0.33 0.0117-0.675-0.17-0.959z" fill="#333"/>
<path d="m53.115 249.79c-1.2653-1.046-2.5305-2.128-3.7609-3.219-0.1213-0.119-0.2659-0.214-0.4248-0.276-0.1588-0.062-0.3288-0.091-0.4994-0.086-0.1705 6e-3 -0.3382 0.046-0.4928 0.118-0.1545 0.073-0.2927 0.176-0.406 0.303-0.1134 0.128-0.1995 0.277-0.2533 0.439-0.0537 0.162-0.0739 0.333-0.0592 0.503 0.0146 0.17 0.0637 0.335 0.1443 0.486 0.0806 0.15 0.1911 0.283 0.3246 0.389 1.5881 1.413 3.2285 2.8 4.869 4.126l1.0297 0.872 1.4659-2.05-1.9371-1.605z" fill="#333"/>
<path d="m117.44 2.1895c-2.47 0.43616-4.974 0.95082-7.426 1.5178-0.306 0.09146-0.566 0.29625-0.727 0.57265-0.16 0.27641-0.21 0.60364-0.137 0.91502 0.072 0.31137 0.26 0.58348 0.526 0.76088s0.59 0.24675 0.905 0.19392c2.417-0.55828 4.869-1.0642 7.304-1.4916 0.169-0.02095 0.333-0.07625 0.48-0.16252 0.148-0.08627 0.276-0.20171 0.378-0.33924 0.101-0.13754 0.173-0.29429 0.212-0.46067 0.038-0.16638 0.043-0.3389 0.012-0.507-0.03-0.1681-0.094-0.32826-0.188-0.47068-0.095-0.14242-0.217-0.26412-0.36-0.35764-0.143-0.09353-0.304-0.15692-0.472-0.1863s-0.341-0.02414-0.507 0.01541z" fill="#333"/>
<path d="m43.918 241.48c-1.7452-1.744-3.4904-3.541-5.157-5.373-0.1071-0.134-0.2405-0.245-0.392-0.326-0.1516-0.08-0.318-0.129-0.4891-0.143s-0.3432 8e-3 -0.5057 0.063-0.312 0.143-0.4392 0.258c-0.1272 0.116-0.2294 0.256-0.3003 0.412-0.071 0.156-0.1092 0.325-0.1123 0.497-3e-3 0.171 0.0291 0.342 0.0944 0.5 0.0654 0.159 0.1625 0.303 0.2855 0.422 1.6929 1.867 3.4904 3.708 5.2356 5.47l0.1658 0.122c0.2563 0.169 0.5657 0.238 0.8698 0.195 0.304-0.043 0.5816-0.197 0.7804-0.431 0.1987-0.234 0.3048-0.533 0.2982-0.84-0.0067-0.306-0.1255-0.6-0.3341-0.826z" fill="#333"/>
<path d="m177.68 4.4488c-2.443-0.62806-4.93-1.1951-7.408-1.6923-0.166-0.0431-0.339-0.0519-0.508-0.02586s-0.331 0.08638-0.476 0.1773c-0.146 0.09093-0.27 0.21052-0.368 0.35145-0.097 0.14093-0.164 0.30021-0.197 0.46808-0.034 0.16787-0.032 0.34078 3e-3 0.50812 0.036 0.16734 0.106 0.32558 0.205 0.46501 0.1 0.13943 0.226 0.2571 0.373 0.3458 0.146 0.0887 0.309 0.14656 0.479 0.17001 2.434 0.48849 4.878 1.0468 7.277 1.6574 0.165 0.05749 0.339 0.0802 0.513 0.06667 0.173-0.01353 0.342-0.063 0.496-0.14526 0.153-0.08226 0.288-0.19551 0.395-0.33258 0.108-0.13708 0.186-0.29497 0.229-0.46366s0.05-0.34449 0.022-0.51625c-0.029-0.17176-0.093-0.33573-0.188-0.48149-0.095-0.14577-0.22-0.27015-0.365-0.36525-0.146-0.0951-0.31-0.15885-0.482-0.1872z" fill="#333"/>
<path d="m192.15 9.011c-2.356-0.87231-4.764-1.7446-7.173-2.4686-0.16-0.06409-0.332-0.09432-0.505-0.0888s-0.343 0.04668-0.499 0.12089c-0.157 0.07421-0.296 0.17988-0.409 0.31039-0.114 0.1305-0.199 0.28304-0.251 0.44804-0.052 0.16501-0.069 0.33893-0.051 0.51087 0.019 0.17194 0.073 0.33821 0.159 0.48837 0.085 0.15017 0.201 0.281 0.34 0.38431s0.297 0.17686 0.466 0.21606c2.339 0.74146 4.729 1.544 7.042 2.4162 0.157 0.0791 0.329 0.1243 0.505 0.1325 0.176 0.0083 0.352-0.0206 0.516-0.0846 0.164-0.0641 0.313-0.1619 0.437-0.2872s0.22-0.2752 0.282-0.4399c0.062-0.1648 0.089-0.3409 0.079-0.5167-0.011-0.17577-0.058-0.34744-0.139-0.50384-0.081-0.15639-0.194-0.29401-0.332-0.40392-0.137-0.10992-0.296-0.18967-0.467-0.23409z" fill="#333"/>
<path d="m33.865 230.46c-1.5706-1.919-3.0977-3.908-4.5549-5.897-0.206-0.238-0.4943-0.391-0.8076-0.427s-0.6288 0.047-0.8837 0.232c-0.2549 0.186-0.4307 0.461-0.4924 0.77s-0.0049 0.63 0.1593 0.899c1.4834 2.024 3.0366 4.048 4.6334 6.002 0.0987 0.142 0.2257 0.262 0.3728 0.352 0.1472 0.091 0.3115 0.15 0.4827 0.174 0.1711 0.025 0.3454 0.013 0.512-0.033 0.1665-0.046 0.3217-0.126 0.4559-0.235s0.2445-0.244 0.324-0.398c0.0795-0.153 0.1264-0.321 0.1379-0.494 0.0115-0.172-0.0127-0.345-0.0711-0.508-0.0584-0.162-0.1497-0.311-0.2683-0.437z" fill="#333"/>
<path d="m3.1762 155.81c-0.00538-0.172-0.04601-0.341-0.11937-0.497-0.07336-0.155-0.17789-0.294-0.30711-0.407-0.12921-0.114-0.28037-0.2-0.44411-0.253-0.16373-0.052-0.33655-0.071-0.50775-0.054-0.17121 0.017-0.33715 0.068-0.48754 0.152-0.1504 0.083-0.28204 0.197-0.38678 0.333-0.10474 0.137-0.18035 0.293-0.22214 0.46-0.04179 0.167-0.04887 0.34-0.020804 0.51 0.24432 2.504 0.55846 5.033 0.9424 7.528 0.07023 0.31 0.25502 0.581 0.51723 0.76s0.58242 0.252 0.89627 0.204c0.31385-0.047 0.59809-0.212 0.79559-0.46 0.1975-0.249 0.29363-0.563 0.26907-0.879-0.37522-2.451-0.68062-4.937-0.92495-7.397z" fill="#333"/>
<path d="m17.216 77.042c0.293 0.1547 0.6353 0.1874 0.9524 0.091 0.317-0.0964 0.5832-0.3141 0.7404-0.6057 1.1606-2.1807 2.4084-4.3615 3.6824-6.4725 0.0958-0.141 0.162-0.3 0.1944-0.4674s0.0303-0.3396-6e-3 -0.5062-0.1062-0.324-0.2053-0.4628c-0.0992-0.1387-0.2255-0.2558-0.3714-0.3441s-0.3082-0.146-0.4771-0.1696-0.3409-0.0126-0.5054 0.0324-0.3181 0.123-0.4515 0.2292-0.2437 0.2385-0.3243 0.3888c-1.3002 2.1546-2.5654 4.3615-3.7522 6.5859-0.1415 0.2678-0.1815 0.5777-0.1125 0.8726 0.0689 0.295 0.2422 0.5551 0.4878 0.7324l0.1483 0.096z" fill="#333"/>
<path d="m24.982 63.984c0.1261 0.0996 0.2714 0.1722 0.4269 0.2131 0.1554 0.0409 0.3176 0.0494 0.4765 0.0248s0.311-0.0816 0.4468-0.1675c0.1358-0.086 0.2524-0.199 0.3426-0.3321 0.6806-1.0031 1.335-1.9365 2.0331-2.9135s1.5009-2.0674 2.2688-3.0705c0.1779-0.2652 0.2482-0.5881 0.1965-0.9033-0.0517-0.3151-0.2215-0.5987-0.4749-0.7931s-0.5713-0.2851-0.8892-0.2535c-0.3178 0.0315-0.6118 0.1829-0.822 0.4233-0.7736 1.0235-1.5386 2.0587-2.2949 3.1055-0.7155 0.9944-1.4048 1.9801-2.0942 3.0007-0.0856 0.1315-0.1444 0.2786-0.1728 0.4329-0.0283 0.1543-0.0258 0.3127 0.0075 0.4661 0.0332 0.1533 0.0966 0.2985 0.1864 0.4272s0.2042 0.2383 0.3367 0.3225l0.0262 0.0174z" fill="#333"/>
<path d="m12.609 90.014c0.925-2.2942 1.9285-4.5884 2.9756-6.8302 0.1129-0.2961 0.1097-0.6241-0.0091-0.9179-0.1188-0.2939-0.3443-0.532-0.6313-0.6667-0.287-0.1346-0.6144-0.1558-0.9164-0.0593s-0.5563 0.3036-0.712 0.5797c-1.0645 2.2767-2.0855 4.6145-3.0279 6.9785-0.1039 0.2595-0.1183 0.5462-0.0409 0.8148 0.0775 0.2686 0.2423 0.5037 0.4685 0.6681 0.0809 0.0599 0.1688 0.1097 0.2618 0.1483 0.1541 0.0606 0.3186 0.0901 0.4841 0.0869 0.1656-0.0031 0.3289-0.039 0.4805-0.1055 0.1516-0.0664 0.2886-0.1622 0.4031-0.2818s0.2042-0.2606 0.264-0.4149z" fill="#333"/>
<path d="m33.865 52.068 0.0786 0.0611c0.2546 0.1768 0.5657 0.2533 0.8734 0.2146 0.3077-0.0386 0.5902-0.1896 0.7932-0.4239 1.5968-1.893 3.2635-3.7597 4.9563-5.5567 0.2314-0.2417 0.3573-0.5655 0.35-0.9-0.0074-0.3346-0.1474-0.6525-0.3892-0.8838-0.2419-0.2314-0.5658-0.3572-0.9004-0.3498-0.3347 0.0073-0.6527 0.1473-0.8841 0.389-1.7452 1.8319-3.4206 3.7335-5.0436 5.6613-0.1083 0.1275-0.19 0.2754-0.2404 0.4349s-0.0684 0.3275-0.0529 0.4941c0.0154 0.1666 0.064 0.3284 0.1428 0.4759 0.0789 0.1476 0.1864 0.2779 0.3163 0.3833z" fill="#333"/>
<path d="m9.9999 96.992c0.08481-0.3084 0.04871-0.6375-0.10093-0.9202-0.1496-0.2827-0.40144-0.4977-0.70417-0.6012-0.30273-0.1034-0.63353-0.0876-0.92496 0.0444-0.29144 0.1319-0.52154 0.3701-0.64339 0.6658-0.82023 2.3901-1.5794 4.8242-2.2687 7.2492-0.06256 0.163-0.09044 0.337-0.08187 0.511 0.00856 0.175 0.05339 0.345 0.13162 0.501s0.18814 0.295 0.32273 0.406 0.29089 0.193 0.45894 0.24c0.16805 0.048 0.34415 0.06 0.51707 0.035 0.17292-0.024 0.33886-0.084 0.48724-0.176s0.27593-0.214 0.37453-0.358c0.09859-0.144 0.16605-0.307 0.19809-0.479 0.68062-2.373 1.431-4.7715 2.2338-7.118z" fill="#333"/>
<path d="m211.48 20.848c1.379 0.7851 2.757 1.605 4.11 2.4425 0.096 0.0697 2.155 1.2997 2.155 1.2997l1.449-2.0238-1.126-0.7065c-1.745-1.0991-3.534-2.1808-5.332-3.2014-0.143-0.0825-0.302-0.1358-0.466-0.157-0.165-0.0212-0.332-0.0098-0.492 0.0335-0.16 0.0434-0.31 0.1178-0.441 0.2191-0.131 0.1012-0.241 0.2273-0.324 0.3711-0.082 0.1437-0.136 0.3023-0.157 0.4667s-0.01 0.3314 0.034 0.4913c0.043 0.16 0.117 0.3099 0.219 0.4411 0.101 0.1312 0.227 0.2412 0.371 0.3237z" fill="#333"/>
<path d="m44.057 41.007c0.2342 0.226 0.547 0.3523 0.8726 0.3523 0.3255 0 0.6383-0.1263 0.8726-0.3523 1.7888-1.7446 3.6474-3.3933 5.5235-4.9984 0.2248-0.2236 0.3568-0.524 0.3693-0.8409 0.0125-0.3168-0.0953-0.6267-0.3018-0.8674-0.2066-0.2407-0.4965-0.3944-0.8117-0.4302-0.3152-0.0359-0.6322 0.0488-0.8876 0.2369-1.8673 1.6661-3.7696 3.4107-5.5933 5.1554-0.232 0.2284-0.3662 0.538-0.3744 0.8635-0.0081 0.3254 0.1105 0.6413 0.3308 0.8811z" fill="#333"/>
<path d="m63.533 25.262c-0.1889-0.2738-0.4787-0.4615-0.8059-0.522-0.3271-0.0605-0.6649 0.0111-0.9393 0.1993-2.0768 1.4218-4.1361 2.9222-6.1081 4.4575-0.1596 0.0836-0.2994 0.2005-0.4098 0.3428-0.1105 0.1423-0.189 0.3068-0.2302 0.4821-0.0413 0.1753-0.0444 0.3575-0.0091 0.5341 0.0354 0.1766 0.1083 0.3436 0.2139 0.4896 0.1055 0.146 0.2413 0.2675 0.398 0.3565 0.1567 0.0889 0.3307 0.1431 0.5102 0.1589 0.1795 0.0157 0.3602-0.0073 0.5301-0.0675 0.1698-0.0602 0.3247-0.1562 0.4541-0.2815 1.9633-1.5091 3.9877-2.9833 6.0296-4.3615 0.1452-0.0901 0.2706-0.2089 0.3683-0.3491 0.0977-0.1401 0.1658-0.2988 0.2002-0.4662 0.0343-0.1674 0.034-0.34-7e-4 -0.5073s-0.1032-0.3257-0.2013-0.4657z" fill="#333"/>
<path d="m89.999 11.279c-0.1258-0.307-0.368-0.5517-0.6737-0.6809-0.3057-0.1291-0.6501-0.132-0.958-0.0082-2.3298 0.9508-4.6596 1.9802-6.9371 3.0531-0.1575 0.0649-0.3002 0.1612-0.4194 0.2829-0.1191 0.1218-0.2123 0.2665-0.2737 0.4254-0.0615 0.1589-0.09 0.3286-0.0838 0.4988s0.047 0.3374 0.1199 0.4914c0.0728 0.154 0.1763 0.2915 0.304 0.4043s0.277 0.1984 0.4389 0.2517c0.1618 0.0532 0.3328 0.073 0.5026 0.0582 0.1697-0.0149 0.3347-0.0641 0.4848-0.1447 2.2338-1.0555 4.5287-2.0587 6.8149-2.992 0.3077-0.1274 0.5522-0.3717 0.6798-0.6792 0.1277-0.3075 0.1279-0.6531 8e-4 -0.9608z" fill="#333"/>
<path d="m104.23 6.4725c-0.044-0.15945-0.12-0.30859-0.222-0.43882-0.102-0.13024-0.229-0.23901-0.373-0.32007-0.145-0.08106-0.304-0.13281-0.468-0.15227s-0.331-0.00626-0.49 0.03886c-2.409 0.69784-4.8432 1.4655-7.2254 2.2942-0.1693 0.04216-0.328 0.11912-0.4659 0.22597-0.138 0.10685-0.2521 0.24126-0.3353 0.39466-0.0831 0.15339-0.1333 0.32241-0.1475 0.49629-0.0141 0.17388 0.0081 0.34879 0.0653 0.51361 0.0571 0.16482 0.1481 0.31593 0.2669 0.44369 0.1188 0.12772 0.2629 0.22942 0.4232 0.29842s0.3332 0.1038 0.5077 0.1023 0.3468-0.0393 0.5059-0.111c2.3385-0.81123 4.7291-1.5701 7.0941-2.2593 0.315-0.09156 0.581-0.30241 0.743-0.5876 0.161-0.28519 0.205-0.62213 0.121-0.93895z" fill="#333"/>
<path d="m2.5131 140.93c-0.02624-0.314-0.16953-0.606-0.40146-0.82-0.23193-0.213-0.53557-0.331-0.85071-0.331-0.31514 0-0.61877 0.118-0.8507 0.331-0.23193 0.214-0.37522 0.506-0.40146 0.82 0 2.521-1.3e-7 5.068 0.13961 7.589-0.004267 0.173 0.026984 0.344 0.091808 0.504 0.064824 0.159 0.16183 0.304 0.28499 0.425 0.12316 0.12 0.26983 0.214 0.4309 0.276 0.16106 0.061 0.33307 0.089 0.50531 0.081 0.17223-8e-3 0.34102-0.051 0.49586-0.127 0.15484-0.075 0.29242-0.182 0.40416-0.313 0.11175-0.132 0.19528-0.285 0.2454-0.449 0.05011-0.165 0.06574-0.339 0.04591-0.51-0.12217-2.504-0.2007-5.007-0.13962-7.476z" fill="#333"/>
<path d="m5.9423 111.35c0.05214-0.166 0.06931-0.34 0.05043-0.513-0.01889-0.173-0.07343-0.34-0.16016-0.49-0.08673-0.151-0.20378-0.282-0.34374-0.385s-0.29978-0.176-0.46937-0.214-0.34525-0.041-0.51587-8e-3c-0.17063 0.034-0.33251 0.102-0.47541 0.201s-0.2637 0.226-0.35478 0.374-0.15045 0.314-0.17436 0.486c-0.55845 2.46-1.0558 4.963-1.4747 7.449-0.04289 0.168-0.05044 0.344-0.02218 0.515s0.09173 0.335 0.18639 0.48c0.09466 0.146 0.21847 0.27 0.36361 0.365 0.14514 0.096 0.30846 0.16 0.47966 0.189 0.17119 0.029 0.34655 0.022 0.515-0.02s0.32634-0.119 0.46371-0.225 0.25123-0.239 0.33441-0.392c0.08317-0.152 0.13385-0.32 0.14884-0.493 0.41011-2.443 0.89004-4.902 1.4485-7.319z" fill="#333"/>
<path d="m3.4293 126.05c0.03505-0.171 0.03421-0.347-0.00244-0.517-0.03666-0.171-0.10835-0.331-0.21051-0.473-0.10215-0.141-0.23255-0.259-0.38291-0.347-0.15035-0.088-0.31738-0.144-0.49046-0.164-0.17309-0.02-0.34845-4e-3 -0.51494 0.048-0.1665 0.051-0.3205 0.136-0.45221 0.25s-0.23826 0.255-0.31287 0.412c-0.074615 0.157-0.11566 0.329-0.12054 0.503-0.28796 2.512-0.51483 5.05-0.6719 7.563-0.020056 0.169-0.005308 0.341 0.043343 0.505 0.04865 0.164 0.13018 0.316 0.23961 0.447 0.10943 0.131 0.24446 0.238 0.39684 0.316 0.15238 0.077 0.3189 0.122 0.4894 0.133 0.17049 0.01 0.34138-0.014 0.50221-0.071 0.16084-0.058 0.30824-0.148 0.4332-0.264s0.22486-0.257 0.29359-0.414c0.06873-0.156 0.10485-0.325 0.10614-0.495 0.14834-2.469 0.36649-4.964 0.65445-7.432z" fill="#333"/>
<path d="m76.369 17.56c-0.1588-0.2924-0.4271-0.5099-0.7461-0.6048-0.319-0.0948-0.6626-0.0593-0.9555 0.0989-2.2163 1.195-4.424 2.4599-6.5706 3.7683-0.1531 0.0794-0.2883 0.1895-0.3971 0.3234s-0.1888 0.2887-0.2351 0.4549c-0.0462 0.1661-0.0578 0.34-0.0339 0.5108 0.0239 0.1709 0.0827 0.3349 0.1728 0.482s0.2095 0.2741 0.3508 0.373c0.1413 0.099 0.3015 0.1678 0.4706 0.2021s0.3434 0.0335 0.5122-0.0024c0.1687-0.036 0.3283-0.1063 0.4686-0.2066 2.1117-1.2823 4.2757-2.5297 6.4485-3.6986 0.1455-0.0778 0.2744-0.1836 0.379-0.3112 0.1047-0.1277 0.1832-0.2747 0.231-0.4326 0.0478-0.158 0.064-0.3239 0.0477-0.4881-0.0164-0.1642-0.0649-0.3236-0.1429-0.4691z" fill="#333"/>
<path d="m205.25 17.455c0.293 0.0469 0.593-0.0115 0.848-0.1648 0.254-0.1534 0.446-0.3918 0.541-0.673s0.087-0.5871-0.022-0.8632c-0.109-0.2762-0.312-0.5049-0.573-0.6456-2.252-1.134-4.555-2.2156-6.868-3.2275-0.298-0.1024-0.624-0.0888-0.913 0.038-0.289 0.1269-0.519 0.3578-0.646 0.6468-0.126 0.289-0.139 0.615-0.036 0.9132s0.314 0.5467 0.592 0.6962c2.269 0.9944 4.537 2.0586 6.745 3.1665 0.076 0.0368 0.154 0.0661 0.236 0.0872l0.096 0.0262z" fill="#333"/>
<path d="m96.325 304.39c17.735 0 32.112-14.372 32.112-32.101s-14.377-32.101-32.112-32.101c-17.735 0-32.111 14.372-32.111 32.101s14.377 32.101 32.111 32.101z" fill="#ffc" stroke="#333" stroke-miterlimit="10" stroke-width="6"/>
<path d="m90.252 277.13-2.9494 8.932h-3.7434v-0.044l9.6422-28.472h4.3629l9.7297 28.499v0.043h-3.866l-3.037-8.941h-10.104l-0.0349-0.017zm9.328-2.905v-0.044l-2.7836-8.173c-0.637-1.867-1.0558-3.559-1.4834-5.234h-0.0872c-0.4276 1.692-0.8726 3.437-1.4398 5.173l-2.7836 8.217v0.043h8.5078l0.0698 0.018z" fill="#000"/>
</g>
<defs>
<clipPath id="a">
<rect width="449" height="329" fill="#fff"/>
</clipPath>
</defs>
</svg>
